<?xml version="1.0" encoding="UTF-8" standalone="no"?>
<svg
   width="136.41748"
   height="136.41748"
   version="1.1"
   id="svg34"
   sodipodi:docname="text-to-voice(2).svg"
   inkscape:version="1.1.2 (0a00cf5339, 2022-02-04)"
   xmlns:inkscape="http://www.inkscape.org/namespaces/inkscape"
   xmlns:sodipodi="http://sodipodi.sourceforge.net/DTD/sodipodi-0.dtd"
   xmlns="http://www.w3.org/2000/svg"
   xmlns:svg="http://www.w3.org/2000/svg">
  <defs
     id="defs38" />
  <sodipodi:namedview
     id="namedview36"
     pagecolor="#ffffff"
     bordercolor="#666666"
     borderopacity="1.0"
     inkscape:pageshadow="2"
     inkscape:pageopacity="0.0"
     inkscape:pagecheckerboard="0"
     showgrid="false"
     inkscape:zoom="3.625"
     inkscape:cx="61.103448"
     inkscape:cy="68.827586"
     inkscape:window-width="1920"
     inkscape:window-height="1016"
     inkscape:window-x="0"
     inkscape:window-y="0"
     inkscape:window-maximized="1"
     inkscape:current-layer="svg34" />
  <g
     id="g890"
     transform="translate(8)">
    <path
       fill="#674f32"
       d="M 12.819514,0.013125 C 13.058764,0.00645 13.298014,6.375e-4 13.537264,0 l 50.24325,0.0097125 c 5.517375,-1.5e-4 9.61425,-0.2152125 13.8855,4.09395 3.88725,3.921225 4.182,7.8034505 4.174125,13.0028245 l -0.0097,6.34425 28.170371,-0.01312 c 6.92363,-0.04012 12.345,2.527875 12.3795,10.651125 l 0.002,27.907125 c -0.003,6.018375 -0.924,11.379375 -8.12775,12.99825 -2.1015,0.4725 -6.44738,0.234 -8.72325,0.234375 l -16.026001,-0.0026 c -2.655,1.651125 -4.944375,3.946125 -7.67475,5.47275 -0.06712,0.852 0.0041,1.756125 0.003,2.614125 l -0.003,24.777003 0.003,9.51112 c 3.75e-4,2.51363 0.161625,5.23388 -0.340125,7.70513 -1.75275,8.63587 -8.73675,11.0445 -16.37025,11.04487 l -42.915375,-0.002 c -2.73375,7.5e-4 -6.454875,0.21113 -9.087,-0.10725 -6.4368754,-0.77775 -11.9418754,-6.17662 -12.90933791,-12.57337 -0.286275,-1.89263 -0.1708125,-3.88575 -0.1692,-5.79825 l 0.0017625,-97.707377 c 1.125e-4,-2.481 -0.1402875,-5.07225 0.0807,-7.54125 C 0.72666359,5.89365 6.3297636,0.98925 12.819514,0.013125 Z"
       id="path2"
       style="stroke-width:0.375" />
    <path
       fill="#be7d69"
       d="M 27.510889,2.8954125 63.911764,2.8902 c 11.004375,-0.00394 15.11775,3.082425 15.115125,14.430037 l -0.006,6.1305 h -4.51725 c 7.5e-4,-1.5495 0.186375,-4.219875 -0.64875,-5.5245 -1.53375,-0.93525 -14.059875,-0.403125 -16.639875,-0.40275 l -43.303875,-0.0053 c -2.442375,0 -6.6195004,-1.087875 -6.7282504,1.837875 -0.118875,3.195 0.022875,6.457125 0.02325,9.65925 l 0.0105,79.306128 c 0.01275,2.2365 -0.8205,4.90275 1.265625,6.4275 5.1315004,-0.0773 10.2768754,-0.002 15.4102504,-0.001 l 44.492625,-0.012 c 2.12925,-0.0176 6.13575,1.00538 6.1185,-1.84125 V 86.434987 c 1.16925,-1.327875 3.018,-2.520375 4.51725,-3.458625 l 0.006,35.200878 c 3.75e-4,4.14375 0.19125,8.33662 -2.875875,11.574 -4.96875,5.2455 -14.23275,3.71325 -20.99475,3.7125 l -36.0405,0.006 c -4.938375,0.0154 -8.580375,0.37988 -12.4515004,-3.4185 -2.733375,-2.68162 -3.70275,-5.92912 -3.739125,-9.68025 L 2.9228886,17.001487 C 2.9247636,10.871362 4.2222636,5.256 11.202514,3.335025 13.782889,2.6249625 16.744639,2.89185 19.409389,2.8917 Z"
       id="path4"
       style="stroke-width:0.375" />
    <path
       fill="#674f32"
       d="m 31.542514,8.74995 11.553375,-0.0042 c 1.89,-4.875e-4 6.438375,-0.258225 8.03175,0.252675 1.102125,1.097625 0.460875,2.362688 -0.93,2.553562 -5.48025,0.141001 -12.97425,0.340876 -18.396375,-0.02325 -2.292,-0.15375 -2.447625,-2.502863 -0.25875,-2.778788 z"
       id="path6"
       style="stroke-width:0.375" />
    <path
       fill="#674f32"
       d="m 38.840014,117.66911 c 5.418,-0.0559 8.425875,-0.054 8.39025,6.36825 -0.01725,3.10425 -0.594,6.10275 -4.2315,6.48563 -3.621,0.081 -8.04225,0.35587 -8.575125,-4.27425 -0.42525,-3.69675 -0.04537,-8.1165 4.416375,-8.57963 z"
       id="path8"
       style="stroke-width:0.375" />
    <path
       fill="#ffffff"
       d="m 38.840014,120.49774 c 1.474875,-0.006 2.94975,-0.0154 4.424625,0 0.449625,0.42037 0.798375,0.85725 1.158375,1.3545 0.01912,1.74787 0.803625,5.18662 -1.42425,5.81925 -1.532625,0.0176 -4.820625,0.72112 -5.521875,-1.143 -0.558375,-1.4835 -0.643875,-5.37938 1.363125,-6.03075 z"
       id="path10"
       style="stroke-width:0.375" />
    <path
       fill="#a8b858"
       d="m 110.64201,26.280112 c 5.8365,-0.3765 8.89463,2.596125 8.95313,8.361 l 0.004,27.172875 c -0.002,1.521375 0.0907,3.1815 -0.20775,4.6755 -1.40888,7.059375 -8.9805,5.902125 -14.17538,5.901 l -16.776371,0.003 c -2.232375,1.343626 -4.38525,3.287625 -6.509625,4.835625 l -9.500625,7.04475 c -1.799625,1.354125 -3.650625,2.668125 -5.36775,4.125 v -8.276625 c -0.0064,-1.831875 0.0795,-3.675 0.02325,-5.505 -0.184875,-6.02475 -16.6755,3.706875 -16.88475,-11.394375 -0.093,-6.691875 -0.0011,-13.401375 -0.0034,-20.09475 l -0.0019,-6.40725 c 0.02137,-9.960375 3.22875,-10.4385 12.406125,-10.441875 z"
       id="path12"
       style="stroke-width:0.375" />
    <path
       fill="#674f32"
       d="m 64.610764,42.012487 c 2.10225,-0.171749 4.86375,-7.5e-4 7.036125,0 l 27.5085,-0.0026 c 1.331251,-0.003 6.442871,-0.559125 7.237121,0.527625 0.68775,0.9405 0.31275,1.72725 -0.6045,2.269875 -1.82475,0.105 -3.71137,0.006 -5.54362,0.0038 l -27.345376,-0.0034 c -2.75925,3.75e-4 -5.530125,0.06337 -8.28825,-3.76e-4 -1.08525,-0.923625 -1.329375,-1.994625 0,-2.794875 z"
       id="path14"
       style="stroke-width:0.375" />
    <path
       fill="#674f32"
       d="m 64.610764,33.751238 25.164375,3.74e-4 c 2.245875,0 15.002621,-0.224624 16.123871,0.198 1.23375,0.465001 1.04325,2.224875 -0.111,2.64075 l -37.457246,0.0041 c -1.323375,0 -5.37075,0.649125 -4.566375,-1.920375 0.1515,-0.4845 0.40425,-0.7005 0.846375,-0.922874 z"
       id="path16"
       style="stroke-width:0.375" />
    <path
       fill="#674f32"
       d="m 65.209639,58.048987 35.822251,0.0041 c 1.34175,0.0019 2.72025,-0.0705 4.0575,-0.01162 2.16562,0.09525 2.16862,2.644499 0.159,2.839874 -2.50013,0.110251 -5.05725,0.0019 -7.563751,0.0015 l -27.405375,-0.0064 c -1.542375,-0.0011 -3.57675,0.130126 -5.042625,0.04087 -2.242125,-0.136124 -1.99275,-2.58525 -0.027,-2.868375 z"
       id="path18"
       style="stroke-width:0.375" />
    <path
       fill="#674f32"
       d="m 65.209639,50.037487 c 4.44375,-0.150375 8.947125,-0.0019 13.39575,-0.0019 l 27.182621,0.0019 c 1.25063,0.914625 1.38675,2.797126 -0.53962,2.895751 l -36.078001,0.0022 c -1.515375,0.0026 -3.0465,0.0735 -4.559625,-0.0022 -1.200375,-1.070626 -1.111875,-2.641875 0.598875,-2.895751 z"
       id="path20"
       style="stroke-width:0.375" />
    <path
       fill="#e7cfc3"
       d="m 10.030264,20.362238 h 61.478625 v 3.0885 l -8.781375,-0.0049 c -8.700375,-0.0022 -15.22425,0.74475 -15.282375,11.296876 l -0.0105,27.303374 c -0.003,1.462876 -0.09712,3.0135 0.18075,4.4535 1.264875,6.54675 6.329625,8.784376 12.279375,8.738251 l 4.423875,-0.012 c 3.75e-4,2.224875 -0.222,15.943875 0.193875,16.64775 1.046625,1.771125 3.651375,-0.868125 4.565625,-1.567125 0.8865,-0.654375 1.76175,-1.334625 2.70375,-1.907625 V 111.77524 H 10.030264 Z"
       id="path22"
       style="stroke-width:0.375" />
    <path
       fill="#be7d69"
       d="m 21.099514,50.037487 c 1.010625,-0.1725 3.9225,-0.0079 5.15025,-0.0052 l 12.674625,0.0049 c 0.700125,0 4.0665,-0.222375 4.431375,-0.100125 1.173,0.392625 0.933375,2.064375 -0.09112,2.544376 l -14.975625,0.0056 c -1.766625,0.0023 -5.725125,0.204 -7.310625,-0.111 -1.327875,-0.263625 -0.912375,-1.86525 0.121125,-2.3385 z"
       id="path24"
       style="stroke-width:0.375" />
    <path
       fill="#be7d69"
       d="m 21.438139,60.881362 c 1.213875,-0.246 3.1995,0.0015 4.5135,0.0045 l 12.171,-0.0049 c 0.74775,-7.5e-4 5.163,-0.20775 5.484375,-0.07087 1.277625,0.544875 0.5025,2.240624 -0.60825,2.495625 l -13.869375,0.006 c -1.25325,3.75e-4 -7.57425,0.311251 -8.35875,-0.207 -0.997125,-0.658875 -0.5295,-2.212125 0.6675,-2.223375 z"
       id="path26"
       style="stroke-width:0.375" />
    <path
       fill="#be7d69"
       d="m 27.947389,71.712112 11.556,0.0064 c 1.2105,0.0015 5.268375,-0.461625 6.1545,0.354375 3.130875,2.88225 -7.246875,2.213625 -7.29975,2.21325 l -11.55525,-0.0026 c -1.22925,3.75e-4 -6.477,0.738375 -6.699,-1.159875 -0.26625,-2.278875 6.647625,-1.4145 7.8435,-1.4115 z"
       id="path28"
       style="stroke-width:0.375" />
    <path
       fill="#be7d69"
       d="m 21.099514,93.492862 c 1.380375,-0.06638 2.79075,-0.0064 4.174125,-0.0053 l 28.45725,0.0041 c 1.144875,-3.75e-4 5.759625,-0.195375 6.493875,0.04125 1.250625,0.40275 0.939,2.042999 -0.06488,2.528624 -2.75175,0.147375 -5.596125,0.003 -8.357625,0.0023 l -26.596875,-0.0034 c -1.038375,0.0011 -5.462625,0.695625 -5.037,-1.438125 0.112125,-0.562125 0.47925,-0.82725 0.931125,-1.1295 z"
       id="path30"
       style="stroke-width:0.375" />
    <path
       fill="#be7d69"
       d="m 21.099514,82.599863 34.720125,-3.75e-4 c 1.074,-3.75e-4 4.62375,-0.537 5.08875,0.79875 0.250125,0.71925 -0.003,1.573125 -0.7485,1.833 l -27.535125,0.0022 c -2.198625,0 -10.368,0.232875 -11.87325,-0.2055 -0.856125,-0.70575 -0.768375,-2.090625 0.348,-2.428124 z"
       id="path32"
       style="stroke-width:0.375" />
  </g>
</svg>
